<?xml version="1.0" encoding="UTF-8"?>
<svg id="Layer_1" data-name="Layer 1" xmlns="http://www.w3.org/2000/svg" viewBox="0 0 1920 1080">
  <defs>
    <style>
      .cls-1 {
        stroke-width: 0px;
      }
    </style>
  </defs>
  <g>
    <g>
      <path class="cls-1" d="m551.11,439.1v-31.88h31.31v31.88h-31.31Zm1.71,175.9v-150h27.89v150h-27.89Z"/>
      <path class="cls-1" d="m609.74,615v-150h27.89v19.92h.85c8.26-14.23,26.19-22.77,45.82-22.77,36.43,0,53.51,23.91,53.51,58.35v94.5h-27.89v-94.21c0-24.19-13.09-35.58-33.02-35.58-25.33,0-39.28,20.21-39.28,50.66v79.13h-27.89Z"/>
      <path class="cls-1" d="m777.39,615v-126.94h-26.47v-23.06h26.47v-19.92c0-27.04,17.65-40.7,45.26-40.7,4.84,0,11.67.57,16.22,1.71v24.19c-24.76-2.56-33.58,2.56-33.58,21.06v13.66h33.58v23.06h-33.58v126.94h-27.89Zm79.41,0v-207.78h27.61v207.78h-27.61Z"/>
      <path class="cls-1" d="m903.47,539.57c0-46.68,29.03-77.42,71.16-77.42s69.45,29.03,69.45,72.58c0,2.85,0,6.55-.29,11.67h-110.43c0,29.89,17.36,48.39,42.69,48.39,21.06,0,31.88-8.82,38.14-26.76h27.61c-5.12,29.6-32.16,49.81-66.03,49.81-42.98,0-72.3-32.16-72.3-78.27Zm110.44-13.95c-1.14-24.76-16.22-40.42-39.28-40.42s-39.28,16.22-41.27,40.42h80.55Z"/>
      <path class="cls-1" d="m1058.88,539.29c0-46.4,29.03-77.14,72.58-77.14,35.58,0,63.19,22.2,66.03,52.94h-29.6c-3.42-19.35-17.65-29.89-36.43-29.89-27.61,0-42.69,21.63-42.69,54.08,0,35.86,16.79,55.5,42.13,55.5,20.49,0,33.87-11.95,37-30.17h29.6c-3.13,30.74-29.32,53.22-66.6,53.22-45.54,0-72.01-31.31-72.01-78.56Z"/>
      <path class="cls-1" d="m1229.37,582.27v-94.21h-24.19v-23.06h24.19v-42.12h27.89v42.12h28.18v23.06h-28.18v85.96c0,13.38,3.42,17.36,20.5,17.36,3.13,0,6.26-.29,7.68-.57v24.19c-4.27.85-9.68,1.42-16.79,1.42-26.19,0-39.28-11.38-39.28-34.16Z"/>
      <path class="cls-1" d="m1306.79,439.1v-31.88h31.31v31.88h-31.31Zm1.71,175.9v-150h27.89v150h-27.89Z"/>
      <path class="cls-1" d="m1358.3,539.86c0-46.96,29.6-77.7,73.44-77.7s73.43,30.74,73.43,77.7-29.32,77.99-73.43,77.99-73.44-31.02-73.44-77.99Zm116.98,0c0-35.01-17.36-54.65-43.55-54.65-27.89,0-43.55,21.92-43.55,54.65,0,35.29,17.36,54.93,43.55,54.93,27.89,0,43.55-21.92,43.55-54.93Z"/>
      <path class="cls-1" d="m1524.24,615v-150h27.89v19.92h.85c8.26-14.23,26.19-22.77,45.82-22.77,36.43,0,53.51,23.91,53.51,58.35v94.5h-27.89v-94.21c0-24.19-13.09-35.58-33.02-35.58-25.33,0-39.28,20.21-39.28,50.66v79.13h-27.89Z"/>
    </g>
    <path class="cls-1" d="m1673.38,496.55c0-18.99,15.32-34.4,34.4-34.4s34.4,15.41,34.4,34.4-15.23,34.4-34.4,34.4-34.4-15.41-34.4-34.4Zm63.3,0c0-15.87-13.03-28.9-28.9-28.9s-28.9,13.03-28.9,28.9,12.94,28.9,28.9,28.9,28.9-13.03,28.9-28.9Zm-46.14,0c0-12.2,7.06-19.08,17.89-19.08,8.99,0,15.6,5.6,16.51,14.04h-8.44c-.64-4.86-3.85-7.16-8.07-7.16-6.42,0-9.54,4.86-9.54,12.2,0,8.35,3.85,12.29,9.63,12.29,4.77,0,7.52-2.94,8.26-7.16h8.35c-.64,8.35-7.34,14.03-16.6,14.03-11.56,0-17.98-7.71-17.98-19.17Z"/>
  </g>
  <path class="cls-1" d="m477.82,468v-3H177.82v3c82.01,0,148.5,32.24,148.5,72s-66.49,72-148.5,72v3h300v-3c-82.01,0-148.5-32.24-148.5-72s66.49-72,148.5-72Z"/>
</svg>