<svg xmlns="http://www.w3.org/2000/svg" viewBox="0 0 1440 820" width="1440" height="820">
  <defs>
    <style>
      @import url('https://fonts.googleapis.com/css2?family=Inter:wght@300;400;500;600;700&amp;display=swap');
      text { font-family: 'Inter', -apple-system, Helvetica, Arial, sans-serif; }
    </style>
    <linearGradient id="dirLine" x1="0" y1="0" x2="1" y2="0">
      <stop offset="0%" stop-color="#E0E0E0"/>
      <stop offset="50%" stop-color="#808080"/>
      <stop offset="100%" stop-color="#E0E0E0"/>
    </linearGradient>
  </defs>

  <!-- Background -->
  <rect width="1440" height="820" fill="#FFFFFF"/>

  <!-- ==================== HEADER ==================== -->
  <text x="48" y="62" font-size="28" font-weight="600" fill="#000000" letter-spacing="-0.8">We build portfolios as systems along the value chain</text>
  <text x="48" y="84" font-size="12" font-weight="400" fill="#808080" letter-spacing="0.3">We expand organically as we learn something new from each investment</text>
  <line x1="48" y1="100" x2="1392" y2="100" stroke="#E0E0E0" stroke-width="1"/>

  <!-- ==================== DIRECTION BAR ==================== -->
  <line x1="48" y1="128" x2="620" y2="128" stroke="url(#dirLine)" stroke-width="1"/>
  <text x="720" y="132" font-size="10" font-weight="500" fill="#808080" letter-spacing="2" text-anchor="middle">FOUNDATION → APPLICATION</text>
  <line x1="820" y1="128" x2="1392" y2="128" stroke="url(#dirLine)" stroke-width="1"/>

  <!-- ==================== DOMAIN CARDS ==================== -->
  <!-- Card geometry: x positions at 48, 316, 584, 852, 1120. Width 240. Gap 28 (arrow in gap). -->

  <!-- ===== MATTER (state-future) ===== -->
  <g opacity="0.55">
    <rect x="48" y="156" width="240" height="310" rx="10" fill="#FAFAFA" stroke="#CCCCCC" stroke-width="1" stroke-dasharray="6 4"/>
    <!-- Badge -->
    <rect x="222" y="148" width="58" height="18" rx="3" fill="#FFFFFF" stroke="#CCCCCC" stroke-width="1"/>
    <text x="251" y="160" font-size="8" font-weight="600" fill="#AAAAAA" letter-spacing="0.8" text-anchor="middle">HORIZON</text>
    <!-- Domain label -->
    <text x="64" y="184" font-size="10" font-weight="500" fill="#808080" letter-spacing="2">I</text>
    <text x="64" y="206" font-size="20" font-weight="600" fill="#000000" letter-spacing="-0.5">Matter</text>
    <text x="64" y="222" font-size="10" font-weight="400" fill="#808080">Raw materials, advanced materials,</text>
    <text x="64" y="234" font-size="10" font-weight="400" fill="#808080">and fabrication.</text>
    <line x1="64" y1="248" x2="272" y2="248" stroke="#E8E8E8" stroke-width="1"/>
    <!-- Capabilities -->
    <rect x="60" y="258" width="216" height="28" rx="5" fill="#FFFFFF" stroke="#EBEBEB" stroke-width="1"/>
    <text x="72" y="276" font-size="9" font-weight="600" fill="#666666">01</text>
    <text x="90" y="276" font-size="11" font-weight="500" fill="#333333">Critical Minerals</text>
    <rect x="60" y="292" width="216" height="28" rx="5" fill="#FFFFFF" stroke="#EBEBEB" stroke-width="1"/>
    <text x="72" y="310" font-size="9" font-weight="600" fill="#666666">02</text>
    <text x="90" y="310" font-size="11" font-weight="500" fill="#333333">Advanced Materials</text>
    <rect x="60" y="326" width="216" height="28" rx="5" fill="#FFFFFF" stroke="#EBEBEB" stroke-width="1"/>
    <text x="72" y="344" font-size="9" font-weight="600" fill="#666666">03</text>
    <text x="90" y="344" font-size="11" font-weight="500" fill="#333333">Manufacturing</text>
  </g>

  <!-- Arrow 1 -->
  <path d="M300 311L314 311M314 311L310 307M314 311L310 315" stroke="#808080" stroke-width="1.5" stroke-linecap="round" stroke-linejoin="round" opacity="0.35"/>

  <!-- ===== ENERGY (state-future) ===== -->
  <g opacity="0.55">
    <rect x="326" y="156" width="240" height="310" rx="10" fill="#FAFAFA" stroke="#CCCCCC" stroke-width="1" stroke-dasharray="6 4"/>
    <rect x="500" y="148" width="58" height="18" rx="3" fill="#FFFFFF" stroke="#CCCCCC" stroke-width="1"/>
    <text x="529" y="160" font-size="8" font-weight="600" fill="#AAAAAA" letter-spacing="0.8" text-anchor="middle">HORIZON</text>
    <text x="342" y="184" font-size="10" font-weight="500" fill="#808080" letter-spacing="2">II</text>
    <text x="342" y="206" font-size="20" font-weight="600" fill="#000000" letter-spacing="-0.5">Energy</text>
    <text x="342" y="222" font-size="10" font-weight="400" fill="#808080">Generation, storage, and grid</text>
    <text x="342" y="234" font-size="10" font-weight="400" fill="#808080">resilience.</text>
    <line x1="342" y1="248" x2="550" y2="248" stroke="#E8E8E8" stroke-width="1"/>
    <rect x="338" y="258" width="216" height="28" rx="5" fill="#FFFFFF" stroke="#EBEBEB" stroke-width="1"/>
    <text x="350" y="276" font-size="9" font-weight="600" fill="#666666">04</text>
    <text x="368" y="276" font-size="11" font-weight="500" fill="#333333">Nuclear &amp; Alt. Energy</text>
    <rect x="338" y="292" width="216" height="28" rx="5" fill="#FFFFFF" stroke="#EBEBEB" stroke-width="1"/>
    <text x="350" y="310" font-size="9" font-weight="600" fill="#666666">05</text>
    <text x="368" y="310" font-size="11" font-weight="500" fill="#333333">Energy Storage</text>
    <rect x="338" y="326" width="216" height="28" rx="5" fill="#FFFFFF" stroke="#EBEBEB" stroke-width="1"/>
    <text x="350" y="344" font-size="9" font-weight="600" fill="#666666">06</text>
    <text x="368" y="344" font-size="11" font-weight="500" fill="#333333">Grid Resilience</text>
  </g>

  <!-- Arrow 2 -->
  <path d="M578 311L592 311M592 311L588 307M592 311L588 315" stroke="#808080" stroke-width="1.5" stroke-linecap="round" stroke-linejoin="round" opacity="0.35"/>

  <!-- ===== SENSE (state-expansion) ===== -->
  <rect x="604" y="156" width="240" height="310" rx="10" fill="#FAFAFA" stroke="#E0E0E0" stroke-width="1"/>
  <rect x="604" y="156" width="2" height="310" rx="1" fill="#A0ADA3"/>
  <rect x="778" y="148" width="58" height="18" rx="3" fill="#FFFFFF" stroke="rgba(179,188,181,0.5)" stroke-width="1"/>
  <text x="807" y="160" font-size="8" font-weight="600" fill="#8A9A8D" letter-spacing="0.5" text-anchor="middle">SINCE 2022</text>
  <text x="620" y="184" font-size="10" font-weight="500" fill="#8A9A8D" letter-spacing="2">III</text>
  <text x="620" y="206" font-size="20" font-weight="600" fill="#000000" letter-spacing="-0.5">Sense</text>
  <text x="620" y="222" font-size="10" font-weight="400" fill="#808080">Perceiving the world across all</text>
  <text x="620" y="234" font-size="10" font-weight="400" fill="#808080">operating environments.</text>
  <line x1="620" y1="248" x2="828" y2="248" stroke="#E8E8E8" stroke-width="1"/>
  <rect x="616" y="256" width="216" height="26" rx="5" fill="#FFFFFF" stroke="#EBEBEB" stroke-width="1"/>
  <text x="628" y="273" font-size="9" font-weight="600" fill="#8A9A8D">07</text>
  <text x="646" y="273" font-size="11" font-weight="500" fill="#333333">Quantum Sensing</text>
  <rect x="616" y="286" width="216" height="26" rx="5" fill="#FFFFFF" stroke="#EBEBEB" stroke-width="1"/>
  <text x="628" y="303" font-size="9" font-weight="600" fill="#8A9A8D">08</text>
  <text x="646" y="303" font-size="11" font-weight="500" fill="#333333">Subsurface</text>
  <rect x="616" y="316" width="216" height="26" rx="5" fill="#FFFFFF" stroke="#EBEBEB" stroke-width="1"/>
  <text x="628" y="333" font-size="9" font-weight="600" fill="#8A9A8D">09</text>
  <text x="646" y="333" font-size="11" font-weight="500" fill="#333333">Maritime</text>
  <rect x="616" y="346" width="216" height="26" rx="5" fill="#FFFFFF" stroke="#EBEBEB" stroke-width="1"/>
  <text x="628" y="363" font-size="9" font-weight="600" fill="#8A9A8D">10</text>
  <text x="646" y="363" font-size="11" font-weight="500" fill="#333333">Stratosphere</text>
  <rect x="616" y="376" width="216" height="26" rx="5" fill="#FFFFFF" stroke="#EBEBEB" stroke-width="1"/>
  <text x="628" y="393" font-size="9" font-weight="600" fill="#8A9A8D">11</text>
  <text x="646" y="393" font-size="11" font-weight="500" fill="#333333">Space</text>
  <rect x="616" y="406" width="216" height="26" rx="5" fill="#FFFFFF" stroke="#EBEBEB" stroke-width="1"/>
  <text x="628" y="423" font-size="9" font-weight="600" fill="#8A9A8D">12</text>
  <text x="646" y="423" font-size="11" font-weight="500" fill="#333333">Biological</text>

  <!-- Arrow 3 -->
  <path d="M856 311L870 311M870 311L866 307M870 311L866 315" stroke="#808080" stroke-width="1.5" stroke-linecap="round" stroke-linejoin="round" opacity="0.35"/>

  <!-- ===== COMPUTE (state-origin) ===== -->
  <rect x="882" y="156" width="240" height="310" rx="10" fill="#FAFAFA" stroke="#E0E0E0" stroke-width="1"/>
  <rect x="882" y="156" width="3" height="310" rx="1" fill="#7A8A7D"/>
  <rect x="1050" y="148" width="64" height="18" rx="3" fill="#FFFFFF" stroke="#B3BCB5" stroke-width="1"/>
  <text x="1082" y="160" font-size="8" font-weight="600" fill="#6B7A6E" letter-spacing="0.5" text-anchor="middle">EST. 2019</text>
  <text x="900" y="184" font-size="10" font-weight="500" fill="#6B7A6E" letter-spacing="2">IV</text>
  <text x="900" y="206" font-size="20" font-weight="600" fill="#000000" letter-spacing="-0.5">Compute</text>
  <text x="900" y="222" font-size="10" font-weight="400" fill="#808080">Processing, securing, and</text>
  <text x="900" y="234" font-size="10" font-weight="400" fill="#808080">distributing intelligence.</text>
  <line x1="900" y1="248" x2="1106" y2="248" stroke="#E8E8E8" stroke-width="1"/>
  <rect x="894" y="258" width="216" height="28" rx="5" fill="#FFFFFF" stroke="#EBEBEB" stroke-width="1"/>
  <text x="906" y="276" font-size="9" font-weight="600" fill="#6B7A6E">13</text>
  <text x="924" y="276" font-size="11" font-weight="500" fill="#333333">Neuromorphic &amp; Alt. Compute</text>
  <rect x="894" y="292" width="216" height="28" rx="5" fill="#FFFFFF" stroke="#EBEBEB" stroke-width="1"/>
  <text x="906" y="310" font-size="9" font-weight="600" fill="#6B7A6E">14</text>
  <text x="924" y="310" font-size="11" font-weight="500" fill="#333333">Trusted / Verifiable Compute</text>
  <rect x="894" y="326" width="216" height="28" rx="5" fill="#FFFFFF" stroke="#EBEBEB" stroke-width="1"/>
  <text x="906" y="344" font-size="9" font-weight="600" fill="#6B7A6E">15</text>
  <text x="924" y="344" font-size="11" font-weight="500" fill="#333333">Edge / Hybrid Cloud</text>
  <rect x="894" y="360" width="216" height="28" rx="5" fill="#FFFFFF" stroke="#EBEBEB" stroke-width="1"/>
  <text x="906" y="378" font-size="9" font-weight="600" fill="#6B7A6E">16</text>
  <text x="924" y="378" font-size="11" font-weight="500" fill="#333333">Cybersecurity</text>

  <!-- Arrow 4 -->
  <path d="M1134 311L1148 311M1148 311L1144 307M1148 311L1144 315" stroke="#808080" stroke-width="1.5" stroke-linecap="round" stroke-linejoin="round" opacity="0.35"/>

  <!-- ===== ACT (state-expansion) ===== -->
  <rect x="1160" y="156" width="240" height="310" rx="10" fill="#FAFAFA" stroke="#E0E0E0" stroke-width="1"/>
  <rect x="1160" y="156" width="2" height="310" rx="1" fill="#A0ADA3"/>
  <rect x="1334" y="148" width="58" height="18" rx="3" fill="#FFFFFF" stroke="rgba(179,188,181,0.5)" stroke-width="1"/>
  <text x="1363" y="160" font-size="8" font-weight="600" fill="#8A9A8D" letter-spacing="0.5" text-anchor="middle">SINCE 2022</text>
  <text x="1176" y="184" font-size="10" font-weight="500" fill="#8A9A8D" letter-spacing="2">V</text>
  <text x="1176" y="206" font-size="20" font-weight="600" fill="#000000" letter-spacing="-0.5">Act</text>
  <text x="1176" y="222" font-size="10" font-weight="400" fill="#808080">Projecting capability into the</text>
  <text x="1176" y="234" font-size="10" font-weight="400" fill="#808080">physical world.</text>
  <line x1="1176" y1="248" x2="1384" y2="248" stroke="#E8E8E8" stroke-width="1"/>
  <rect x="1172" y="258" width="216" height="28" rx="5" fill="#FFFFFF" stroke="#EBEBEB" stroke-width="1"/>
  <text x="1184" y="276" font-size="9" font-weight="600" fill="#8A9A8D">17</text>
  <text x="1202" y="276" font-size="11" font-weight="500" fill="#333333">Autonomous Systems</text>
  <rect x="1172" y="292" width="216" height="28" rx="5" fill="#FFFFFF" stroke="#EBEBEB" stroke-width="1"/>
  <text x="1184" y="310" font-size="9" font-weight="600" fill="#8A9A8D">18</text>
  <text x="1202" y="310" font-size="11" font-weight="500" fill="#333333">EM Spectrum Control</text>
  <rect x="1172" y="326" width="216" height="28" rx="5" fill="#FFFFFF" stroke="#EBEBEB" stroke-width="1"/>
  <text x="1184" y="344" font-size="9" font-weight="600" fill="#8A9A8D">19</text>
  <text x="1202" y="344" font-size="11" font-weight="500" fill="#333333">Hypersonics</text>
  <rect x="1172" y="360" width="216" height="28" rx="5" fill="#FFFFFF" stroke="#EBEBEB" stroke-width="1"/>
  <text x="1184" y="378" font-size="9" font-weight="600" fill="#8A9A8D">20</text>
  <text x="1202" y="378" font-size="11" font-weight="500" fill="#333333">Space Access &amp; Servicing</text>

  <!-- ==================== PORTFOLIO COMPANIES ==================== -->
  <!-- Centered under respective domain cards: SENSE@724, COMPUTE@1002, ACT@1280 -->

  <!-- SENSE portfolio (card x=604, w=240, center=724) -->
  <text x="724" y="484" font-size="9" font-weight="600" fill="#8A9A8D" letter-spacing="1.5" text-anchor="middle">PORTFOLIO</text>
  <text x="724" y="500" font-size="11" font-weight="500" fill="#555555" text-anchor="middle">Radical · Foundational · Deep Earth</text>

  <!-- COMPUTE portfolio (card x=882, w=240, center=1002) -->
  <text x="1002" y="484" font-size="9" font-weight="600" fill="#6B7A6E" letter-spacing="1.5" text-anchor="middle">PORTFOLIO</text>
  <text x="1002" y="500" font-size="11" font-weight="500" fill="#555555" text-anchor="middle">Fabric · Ubitium · Hedy · Anytype · Flashbots</text>

  <!-- ACT portfolio (card x=1160, w=240, center=1280) -->
  <text x="1280" y="484" font-size="9" font-weight="600" fill="#8A9A8D" letter-spacing="1.5" text-anchor="middle">PORTFOLIO</text>
  <text x="1280" y="500" font-size="11" font-weight="500" fill="#555555" text-anchor="middle">Ark · NAD · Levtek · Lodestar</text>

  <!-- ==================== LEGEND ==================== -->
  <line x1="48" y1="528" x2="1392" y2="528" stroke="#E8E8E8" stroke-width="1"/>

  <!-- Origin -->
  <rect x="530" y="544" width="16" height="3" rx="1" fill="#6B7A6E"/>
  <text x="554" y="550" font-size="10" font-weight="400" fill="#808080" letter-spacing="0.3">Inflection origin (2019)</text>

  <!-- Expansion -->
  <rect x="710" y="544" width="16" height="3" rx="1" fill="#A0ADA3"/>
  <text x="734" y="550" font-size="10" font-weight="400" fill="#808080" letter-spacing="0.3">Active expansion (2022)</text>

  <!-- Future -->
  <line x1="910" y1="546" x2="926" y2="546" stroke="#BBBBBB" stroke-width="1.5" stroke-dasharray="4 3"/>
  <text x="934" y="550" font-size="10" font-weight="400" fill="#808080" letter-spacing="0.3">Future horizon</text>

  <!-- ==================== FOOTER ==================== -->
  <line x1="48" y1="576" x2="1392" y2="576" stroke="#E8E8E8" stroke-width="1"/>
  <text x="48" y="596" font-size="10" font-weight="600" fill="#808080" letter-spacing="2.5">inflection</text>

</svg>
